<svg version="1" xmlns="http://www.w3.org/2000/svg" width="682.667" height="682.667" viewBox="0 0 512.000000 512.000000"><path d="M104 141.7c-4.8.9-14.6 6.1-19 10-2.5 2.3-5.9 6.5-7.7 9.4-1.7 3-10.8 26.8-20.3 52.9-9.4 26.1-17.5 48.4-18 49.5-.5 1.1-3.2 8.5-6 16.5-2.9 8-6.8 18.8-8.8 24-8.4 22.5-3.6 41.2 13.8 54.1 8.6 6.4 24 9.1 34.5 6.1 11.1-3.1 21.7-11.4 26.2-20.3 1.2-2.4 14.2-37.3 28.8-77.4 25.3-69.2 26.7-73.4 27.2-81.5.8-12.4-2.6-21.6-11.1-30.8-9.6-10.4-24.9-15.2-39.6-12.5zM214.2 142.6c-6.3 1.7-8.2 2.6-14.4 7.1-5.3 3.8-11.8 12.9-14.3 20-.9 2.7-2.3 6.4-3.1 8.3-.7 1.9-2.9 7.8-4.8 13s-6.4 17.8-10.2 28c-3.7 10.2-7.9 21.9-9.4 26-1.5 4.1-7.8 21.4-14 38.5-12 33-13.2 38.2-10.9 48.6 5.3 24.4 30.7 39.1 54.2 31.3 13.7-4.5 22.4-13.9 28.1-30 1.5-4.4 3.2-8.8 3.6-9.9.8-1.7 4.9-12.9 11.6-31.5 2.6-7.3 22.8-62.7 25.1-69 1.3-3.6 3.5-9.9 5-14 1.4-4.1 3.1-8.9 3.9-10.5 1.5-3.4 3.3-14 2.9-17-.2-1.1-.6-4-.9-6.5-.3-2.5-1.9-7.2-3.5-10.5-9-18.2-29.2-27.3-48.9-21.9zM324.7 143.1c-10.1 3.4-16.9 8.8-22.5 17.7-2.4 3.8-11.4 27.4-26.8 70.2-8.6 24.1-24.6 68-25.4 69.5-5.1 10.9-6.6 26.6-3.5 35.9 6.9 20.3 27.4 32.4 48.1 28.5 10.4-2 22.6-10.5 27.8-19.4 1.9-3.2 39.9-106 53.8-145.5 6.1-17.2 3.9-31.5-6.8-44.6-9.8-12.1-29.6-17.5-44.7-12.3zM441.3 146.5c-11.7 2.7-23.3 11.2-28.1 20.8-1.2 2.3-14.1 37.1-28.8 77.2-25 68.4-26.7 73.5-27.1 81.3-.6 9.3.6 15 4.7 22.5 13.9 25.3 49 29.3 68.3 7.8 3.9-4.3 7.2-10.7 10.5-20.1 2.1-5.9 29.2-80.3 42.5-116.5 7.5-20.4 8.1-22.6 8.3-30.7.4-12.8-3.4-22.4-12.3-31.3-9.8-9.6-24.8-13.9-38-11z"/></svg>